<?xml version="1.0" standalone="no"?><!DOCTYPE svg PUBLIC "-//W3C//DTD SVG 1.1//EN" "http://www.w3.org/Graphics/SVG/1.1/DTD/svg11.dtd"><svg t="1702429283710" class="icon" viewBox="0 0 1024 1024" version="1.1" xmlns="http://www.w3.org/2000/svg" p-id="11424" xmlns:xlink="http://www.w3.org/1999/xlink" width="200" height="200"><path d="M550.659282 169.828587m16.485134 4.417179l65.940537 17.668713q16.485134 4.417178 12.067955 20.902313l-167.433146 624.869008q-4.417178 16.485134-20.902312 12.067955l-65.940536-17.668713q-16.485134-4.417178-12.067956-20.902313l167.433146-624.869008q4.417178-16.485134 20.902312-12.067955Z" fill="#6B7C99" p-id="11425"></path><path d="M981.333333 529.066667L746.581333 767.061333a17.066667 17.066667 0 0 1-24.149333 0L674.133333 719.104a17.066667 17.066667 0 0 1 0-24.149333l187.733334-190.378667-183.04-187.221333a17.066667 17.066667 0 0 1 0-24.064l48.64-48.042667a17.066667 17.066667 0 0 1 24.149333 0L981.333333 480.682667a34.133333 34.133333 0 0 1 0 48.384zM50.432 483.754667l234.837333-238.336a17.066667 17.066667 0 0 1 24.149334 0l48.469333 48.042666a17.066667 17.066667 0 0 1 0 24.149334L170.666667 507.904l182.357333 187.136a17.066667 17.066667 0 0 1 0 24.149333l-48.725333 47.957334a17.066667 17.066667 0 0 1-24.149334 0L50.346667 531.712a34.133333 34.133333 0 0 1 0.085333-47.957333z" fill="#6B7C99" p-id="11426"></path></svg>