<?xml version="1.0" standalone="no"?><!DOCTYPE svg PUBLIC "-//W3C//DTD SVG 1.1//EN" "http://www.w3.org/Graphics/SVG/1.1/DTD/svg11.dtd"><svg t="1703551334978" class="icon" viewBox="0 0 1024 1024" version="1.1" xmlns="http://www.w3.org/2000/svg" p-id="4255" xmlns:xlink="http://www.w3.org/1999/xlink" width="200" height="200"><path d="M128 646.4l768 0 0 64-768 0 0-64Z" p-id="4256" fill="#8a8a8a"></path><path d="M128 768l768 0 0 128-768 0 0-128Z" p-id="4257" fill="#8a8a8a"></path><path d="M486.4 563.2C492.8 569.6 499.2 576 512 576l0 0c12.8 0 19.2-6.4 25.6-12.8l134.4-134.4c12.8-12.8 12.8-25.6 0-38.4l-6.4-6.4c-12.8-12.8-25.6-12.8-38.4 0L544 467.2 544 160C544 140.8 531.2 128 512 128l0 0C492.8 128 480 140.8 480 160l0 307.2L396.8 377.6C384 371.2 364.8 371.2 358.4 377.6L352 384c-12.8 12.8-12.8 25.6 0 38.4L486.4 563.2z" p-id="4258" fill="#8a8a8a"></path></svg>